<svg width="500" height="500" viewBox="0 0 500 500" fill="none" xmlns="http://www.w3.org/2000/svg">
<path opacity="0.4" d="M458.333 255.208C458.333 409.557 404.375 463.542 250 463.542C95.6615 463.542 41.6667 409.557 41.6667 255.208C41.6667 100.859 95.6615 46.875 250 46.875C404.339 46.875 458.333 100.87 458.333 255.208Z" fill="#2E3B47"/>
<path d="M458.333 250C458.333 404.349 404.375 458.333 250 458.333C95.6615 458.333 41.6667 404.349 41.6667 250C41.6667 95.651 95.6615 41.6667 250 41.6667C404.339 41.6667 458.333 95.6615 458.333 250Z" fill="url(#paint0_linear_2_9)"/>
<path opacity="0.15" d="M250 41.6667C95.6615 41.6667 41.6667 95.6615 41.6667 250C41.6667 404.339 95.6615 458.333 250 458.333C404.375 458.333 458.333 404.349 458.333 250C458.333 95.651 404.359 41.6667 250 41.6667ZM250 453.125C98.1355 453.125 46.8751 401.865 46.8751 250C46.8751 98.1355 98.1355 46.8751 250 46.8751C401.865 46.8751 453.125 98.1355 453.125 250C453.125 401.865 401.875 453.125 250 453.125Z" fill="url(#paint1_linear_2_9)"/>
<path d="M351.065 144.634L331.936 360.138C331.87 360.879 331.047 361.291 330.414 360.9L206.554 284.354C205.974 283.996 205.915 283.175 206.438 282.737L302.609 202.208C303.525 201.441 302.567 200.003 301.506 200.554L171.871 267.82C171.646 267.936 171.386 267.963 171.143 267.896L98.8232 247.824C97.9041 247.569 97.8299 246.294 98.7131 245.934L349.692 143.619C350.385 143.336 351.132 143.888 351.065 144.634Z" fill="white"/>
<defs>
<linearGradient id="paint0_linear_2_9" x1="250" y1="41.6667" x2="250" y2="458.333" gradientUnits="userSpaceOnUse">
<stop stop-color="#3593E6"/>
<stop offset="1" stop-color="#0093EE"/>
</linearGradient>
<linearGradient id="paint1_linear_2_9" x1="250" y1="42.9011" x2="250" y2="455.636" gradientUnits="userSpaceOnUse">
<stop stop-color="white"/>
<stop offset="1" stop-color="white"/>
</linearGradient>
</defs>
</svg>
