<?xml version="1.0" encoding="utf-8"?>
<!-- Generator: Adobe Illustrator 15.0.0, SVG Export Plug-In . SVG Version: 6.00 Build 0)  -->
<!DOCTYPE svg PUBLIC "-//W3C//DTD SVG 1.1//EN" "http://www.w3.org/Graphics/SVG/1.1/DTD/svg11.dtd">
<svg width="30" height="30" viewBox="0 0 30 30" fill="none" xmlns="http://www.w3.org/2000/svg">
<g clip-path="url(#clip0_4_2)">
<g opacity="0.5">
<path d="M6.5 22.3229C6.5 25.2669 11.7572 25.5 15.4372 25.5C18.5915 25.5 24.3743 25.2669 24.3743 22.3229C24.3743 19.3789 18.4162 18.2924 15.4372 18.1172C12.4581 18.2924 6.5 19.3789 6.5 22.3229Z" stroke="#8C8C8C"/>
<circle cx="15.4371" cy="10.2314" r="4.23144" stroke="#8C8C8C"/>
</g>
<g opacity="0.3">
<path d="M5.5 21.3229C5.5 24.2669 10.7572 24.5 14.4372 24.5C17.5915 24.5 23.3743 24.2669 23.3743 21.3229C23.3743 18.3789 17.4162 17.2924 14.4372 17.1172C11.4581 17.2924 5.5 18.3789 5.5 21.3229Z" stroke="#8C8C8C"/>
<circle cx="14.4371" cy="9.23144" r="4.23144" stroke="#8C8C8C"/>
</g>
<path d="M6 21.8229C6 24.7669 11.2572 25 14.9372 25C18.0915 25 23.8743 24.7669 23.8743 21.8229C23.8743 18.8789 17.9162 17.7924 14.9372 17.6172C11.9581 17.7924 6 18.8789 6 21.8229Z" fill="#D9D9D9" stroke="#CCCCCC"/>
<circle cx="14.9371" cy="9.73144" r="4.23144" fill="#D9D9D9" stroke="#CCCCCC"/>
</g>
<defs>
<clipPath id="clip0_4_2">
<rect width="30" height="30" fill="white"/>
</clipPath>
</defs>
</svg>
