<?xml version="1.0" encoding="utf-8"?>
<!-- Generator: Adobe Illustrator 15.0.0, SVG Export Plug-In . SVG Version: 6.00 Build 0)  -->
<!DOCTYPE svg PUBLIC "-//W3C//DTD SVG 1.1//EN" "http://www.w3.org/Graphics/SVG/1.1/DTD/svg11.dtd">
<svg width="30" height="30" viewBox="0 0 30 30" fill="none" xmlns="http://www.w3.org/2000/svg">
<g clip-path="url(#clip0_5_27)">
<path opacity="0.5" d="M14.9 20.45L9.1 24.8C8.44076 25.2944 7.5 24.824 7.5 24V8.41421C7.5 8.149 7.60536 7.89464 7.79289 7.70711L8.70711 6.79289C8.89464 6.60536 9.149 6.5 9.41421 6.5H21.1667C21.383 6.5 21.5936 6.57018 21.7667 6.7L23.1 7.7C23.3518 7.88885 23.5 8.18524 23.5 8.5V24C23.5 24.824 22.5592 25.2944 21.9 24.8L16.1 20.45C15.7444 20.1833 15.2556 20.1833 14.9 20.45Z" stroke="#8C8C8C" stroke-width="2"/>
<path opacity="0.3" d="M13.9 19.45L8.1 23.8C7.44076 24.2944 6.5 23.824 6.5 23V7.41421C6.5 7.149 6.60536 6.89464 6.79289 6.70711L7.70711 5.79289C7.89464 5.60536 8.149 5.5 8.41421 5.5H20.1667C20.383 5.5 20.5936 5.57018 20.7667 5.7L22.1 6.7C22.3518 6.88885 22.5 7.18524 22.5 7.5V23C22.5 23.824 21.5592 24.2944 20.9 23.8L15.1 19.45C14.7444 19.1833 14.2556 19.1833 13.9 19.45Z" stroke="#8C8C8C" stroke-width="2"/>
<path d="M14.4 19.95L8.6 24.3C7.94076 24.7944 7 24.324 7 23.5V7.91421C7 7.649 7.10536 7.39464 7.29289 7.20711L8.20711 6.29289C8.39464 6.10536 8.649 6 8.91421 6H20.6667C20.883 6 21.0936 6.07018 21.2667 6.2L22.6 7.2C22.8518 7.38885 23 7.68524 23 8V23.5C23 24.324 22.0592 24.7944 21.4 24.3L15.6 19.95C15.2444 19.6833 14.7556 19.6833 14.4 19.95Z" fill="#D9D9D9" stroke="#CCCCCC" stroke-width="2"/>
</g>
<defs>
<clipPath id="clip0_5_27">
<rect width="30" height="30" fill="white"/>
</clipPath>
</defs>
</svg>
