<?xml version="1.0" encoding="utf-8"?>
<!-- Generator: Adobe Illustrator 15.0.0, SVG Export Plug-In . SVG Version: 6.00 Build 0)  -->
<!DOCTYPE svg PUBLIC "-//W3C//DTD SVG 1.1//EN" "http://www.w3.org/Graphics/SVG/1.1/DTD/svg11.dtd">
<svg width="30" height="30" viewBox="0 0 30 30" fill="none" xmlns="http://www.w3.org/2000/svg">
<g clip-path="url(#clip0_10_2)">
<path opacity="0.3" d="M25 9L20.3846 4V7H9.61538C7.07615 7 5 9.7 5 13V18C5 21.301 7.07615 24 9.61538 24H12.6923C13.1146 24 13.4615 23.551 13.4615 23V21C13.4615 20.451 13.1146 20 12.6923 20H9.61538C8.78154 20 8.07692 19.084 8.07692 18V13C8.07692 11.916 8.78154 11 9.61538 11H20.3846V14L25 9Z" fill="black"/>
<path opacity="0.15" d="M9.5 26C6.46714 26 4 22.859 4 19V14C4 10.14 6.46714 7 9.5 7H19.7143V5C19.7143 4.612 19.8911 4.259 20.1669 4.094C20.2729 4.031 20.3869 4 20.5 4C20.6799 4 20.8591 4.079 21.0036 4.232L25.7179 9.232C25.8963 9.422 26 9.703 26 10C26 10.297 25.8963 10.578 25.7179 10.768L21.0036 15.768C20.8591 15.921 20.6799 16 20.5 16C20.3861 16 20.2729 15.969 20.1669 15.906C19.8911 15.741 19.7143 15.388 19.7143 15V13H9.5C9.08121 13 8.71429 13.467 8.71429 14V19C8.71429 19.532 9.08121 20 9.5 20H12.6429C13.5095 20 14.2143 20.897 14.2143 22V24C14.2143 25.103 13.5095 26 12.6429 26H9.5Z" fill="#8C8C8C"/>
<path opacity="0.15" d="M25 10L20.3846 5V8H9.61538C7.07615 8 5 10.7 5 14V19C5 22.301 7.07615 25 9.61538 25H12.6923C13.1146 25 13.4615 24.551 13.4615 24V22C13.4615 21.451 13.1146 21 12.6923 21H9.61538C8.78154 21 8.07692 20.084 8.07692 19V14C8.07692 12.916 8.78154 12 9.61538 12H20.3846V15L25 10Z" fill="black"/>
<path d="M25 10L20.3846 5V8H9.61538C7.07615 8 5 10.7 5 14V19C5 22.301 7.07615 25 9.61538 25H12.6923C13.1146 25 13.4615 24.551 13.4615 24V22C13.4615 21.451 13.1146 21 12.6923 21H9.61538C8.78154 21 8.07692 20.084 8.07692 19V14C8.07692 12.916 8.78154 12 9.61538 12H20.3846V15L25 10Z" fill="#CCCCCC"/>
</g>
<defs>
<clipPath id="clip0_10_2">
<rect width="30" height="30" fill="white"/>
</clipPath>
</defs>
</svg>
